<mxfile host="65bd71144e">
    <diagram id="tBKhZ6suBbW2D9HEVk-O" name="Page-1">
        <mxGraphModel dx="520" dy="437" grid="1" gridSize="10" guides="1" tooltips="1" connect="1" arrows="1" fold="1" page="1" pageScale="1" pageWidth="850" pageHeight="1100" math="0" shadow="0">
            <root>
                <mxCell id="0"/>
                <mxCell id="1" parent="0"/>
                <mxCell id="2" value="Looping" style="swimlane;" vertex="1" parent="1">
                    <mxGeometry x="170" y="140" width="350" height="290" as="geometry"/>
                </mxCell>
                <mxCell id="3" value="2" style="rounded=1;whiteSpace=wrap;html=1;" vertex="1" parent="2">
                    <mxGeometry x="20" y="90" width="120" height="20" as="geometry"/>
                </mxCell>
                <mxCell id="6" value="Enter the first value" style="text;html=1;strokeColor=none;fillColor=none;align=center;verticalAlign=middle;whiteSpace=wrap;rounded=0;" vertex="1" parent="2">
                    <mxGeometry x="20" y="60" width="120" height="30" as="geometry"/>
                </mxCell>
                <mxCell id="7" value="5" style="rounded=1;whiteSpace=wrap;html=1;" vertex="1" parent="2">
                    <mxGeometry x="20" y="140" width="120" height="20" as="geometry"/>
                </mxCell>
                <mxCell id="8" value="Enter the second value" style="text;html=1;strokeColor=none;fillColor=none;align=center;verticalAlign=middle;whiteSpace=wrap;rounded=0;" vertex="1" parent="2">
                    <mxGeometry x="20" y="110" width="130" height="30" as="geometry"/>
                </mxCell>
                <mxCell id="9" value="CALCULATE" style="rounded=1;whiteSpace=wrap;html=1;" vertex="1" parent="2">
                    <mxGeometry x="20" y="170" width="90" height="20" as="geometry"/>
                </mxCell>
                <mxCell id="10" value="It is 10" style="text;html=1;strokeColor=none;fillColor=none;align=center;verticalAlign=middle;whiteSpace=wrap;rounded=0;" vertex="1" parent="2">
                    <mxGeometry x="15" y="200" width="65" height="30" as="geometry"/>
                </mxCell>
            </root>
        </mxGraphModel>
    </diagram>
</mxfile>